<svg width="125" height="26" viewBox="0 0 125 26" fill="none" xmlns="http://www.w3.org/2000/svg">
<g id="logo">
<path id="F" d="M33.3207 13.2359V19.9283H29.9252V4.05371H40.7749V6.82715H33.3207V8.77424L30.8964 10.4376H40.456V13.2359H33.3243H33.3207Z" fill="white"/>
<path id="L" d="M43.0072 19.9283V3.86218H45.254C45.7649 3.86218 46.1817 4.27004 46.1817 4.77011V19.9283H43.0072Z" fill="white"/>
<path id="O" d="M54.2157 20.2404C53.2373 20.2404 52.3675 20.0879 51.6029 19.7864C50.8383 19.485 50.1896 19.0629 49.6605 18.5203C49.1315 17.9777 48.7292 17.3251 48.4502 16.559C48.1748 15.793 48.0334 14.956 48.0334 14.048C48.0334 13.1401 48.1748 12.2783 48.4611 11.5122C48.7473 10.7461 49.1568 10.0936 49.6932 9.55093C50.2295 9.0083 50.8781 8.58981 51.6355 8.29544C52.3929 8.00107 53.2518 7.85211 54.2121 7.85211C55.1724 7.85211 56.0022 8.00107 56.7524 8.29544C57.5025 8.58981 58.1403 9.00476 58.6694 9.54029C59.1985 10.0758 59.6043 10.7249 59.8906 11.4874C60.1769 12.2534 60.3182 13.1046 60.3182 14.0445C60.3182 14.9843 60.1769 15.8355 59.8906 16.5909C59.6043 17.3464 59.1985 17.9989 58.6694 18.538C58.1403 19.0807 57.4953 19.4992 56.7379 19.7935C55.9805 20.0879 55.1361 20.2368 54.2084 20.2368L54.2157 20.2404ZM54.2157 17.6336C56.1544 17.6336 57.122 16.4384 57.122 14.048C57.122 11.6576 56.1544 10.4872 54.2157 10.4872C52.2769 10.4872 51.3094 11.6753 51.3094 14.048C51.3094 16.4207 52.2769 17.6336 54.2157 17.6336Z" fill="white"/>
<path id="W" d="M71.0447 18.3855L69.5698 13.0904L68.0949 18.3855C67.8413 19.297 66.9969 19.9283 66.033 19.9283C65.0763 19.9283 64.2355 19.3076 63.9746 18.4068L60.9958 8.16422H64.3406L66.2939 15.7185L67.9536 8.16422H71.1788L73.0596 15.7185L74.8932 8.16422C76.5348 8.16422 77.7162 9.69989 77.2632 11.2427L75.165 18.4068C74.9005 19.3041 74.0634 19.9247 73.1103 19.9247C72.1464 19.9247 71.302 19.2935 71.0483 18.382L71.0447 18.3855Z" fill="white"/>
<path id="S" d="M79.9883 10.4021C80.3398 10.2496 80.8182 10.1751 81.4197 10.1751C82.1517 10.1751 82.6699 10.2922 82.9707 10.5227C83.2715 10.7532 83.4128 11.1575 83.3947 11.7285H86.446C86.5873 10.4553 86.3083 9.49064 85.6016 8.83451C84.895 8.18194 83.6701 7.85565 81.9271 7.85565C81.0139 7.85565 80.2202 7.94432 79.5498 8.1181C79.0135 8.25642 78.546 8.44084 78.1438 8.66428C78.691 9.54384 78.8359 10.5972 78.5424 11.6009L77.7597 14.2785C78.046 14.4311 78.3757 14.5694 78.7453 14.69C79.3288 14.8815 80.1079 15.0943 81.0755 15.3354C81.5756 15.4631 81.9995 15.6156 82.3511 15.7894C82.7026 15.9632 82.8403 16.2611 82.7678 16.6725C82.6881 17.1194 82.4235 17.435 81.9669 17.6159C81.5103 17.8003 80.9994 17.889 80.4268 17.889C79.6441 17.889 79.0606 17.7365 78.6729 17.435C78.2851 17.1336 78.1438 16.7009 78.2416 16.1441C77.9952 16.1441 77.7633 16.2079 77.5604 16.3214C77.1835 16.5342 76.9479 16.9243 76.9008 17.3464C76.8465 17.8358 76.6798 18.9672 76.234 19.2934C77.0893 19.9176 78.3576 20.2333 80.0354 20.2333C81.7133 20.2333 83.1302 19.8928 84.1376 19.2048C85.145 18.5203 85.7575 17.5627 85.9749 16.3356C86.109 15.5695 86.0437 14.9701 85.7792 14.5304C85.5147 14.0941 85.087 13.7466 84.4964 13.4912C84.0543 13.3174 83.536 13.1543 82.9454 13.0018C82.3547 12.8493 81.7314 12.679 81.0827 12.4875C80.463 12.3137 80.0064 12.1329 79.7129 11.9484C79.4194 11.7676 79.3034 11.498 79.365 11.1469C79.4266 10.7958 79.6332 10.5475 79.9847 10.395L79.9883 10.4021Z" fill="white"/>
<path id="H" d="M97.9335 8.84871C97.2776 8.18904 96.3282 7.85566 95.0924 7.85566C94.6866 7.85566 94.2879 7.90177 93.8966 7.99753C93.5052 8.09329 93.1392 8.22096 92.8022 8.38056C92.4652 8.54016 92.1571 8.73522 91.8817 8.96575C91.6027 9.19628 91.3853 9.441 91.2258 9.6928L91.9397 5.63904C92.1028 4.70983 91.3708 3.85864 90.4104 3.85864H89.0805L86.2467 19.9248H89.4211L90.6098 13.1827C90.6786 12.7854 90.7982 12.413 90.9649 12.0726C91.1316 11.7321 91.3454 11.4271 91.6027 11.1646C91.86 10.9022 92.1571 10.6929 92.4941 10.544C92.8312 10.3915 93.1935 10.317 93.5849 10.317C94.3169 10.317 94.8134 10.4801 95.0743 10.8064C95.3352 11.1327 95.386 11.7427 95.2301 12.6365L93.9437 19.9283H97.1435L98.6112 11.608C98.8177 10.4269 98.593 9.50838 97.9371 8.84871H97.9335Z" fill="white"/>
<path id="O_2" d="M111.613 11.4874C111.461 10.7213 111.171 10.0723 110.736 9.54029C110.302 9.00476 109.736 8.59335 109.037 8.29544C108.341 8.00107 107.519 7.85211 106.576 7.85211C105.634 7.85211 104.732 8.00107 103.92 8.29544C103.112 8.58981 102.391 9.0083 101.757 9.55093C101.122 10.0936 100.597 10.7461 100.177 11.5122C99.7563 12.2783 99.4664 13.1224 99.3033 14.048C99.1438 14.956 99.133 15.793 99.2743 16.559C99.4156 17.3251 99.7019 17.9777 100.137 18.5203C100.572 19.0629 101.144 19.485 101.854 19.7864C102.565 20.0879 103.409 20.2404 104.388 20.2404C105.366 20.2404 106.185 20.0914 106.993 19.7971C107.801 19.5027 108.519 19.0842 109.142 18.5416C109.769 17.9989 110.291 17.3499 110.707 16.5945C111.128 15.8391 111.418 14.9879 111.584 14.048C111.751 13.1082 111.758 12.2534 111.61 11.4909L111.613 11.4874ZM108.388 14.048C107.968 16.4384 106.786 17.6336 104.848 17.6336C102.909 17.6336 102.152 16.4384 102.572 14.048C102.992 11.6718 104.17 10.4837 106.109 10.4837C108.048 10.4837 108.805 11.6718 108.388 14.048Z" fill="white"/>
<path id="P" d="M124.42 11.5122C124.297 10.7319 124.054 10.0687 123.695 9.52965C123.333 8.98702 122.858 8.57207 122.267 8.28479C121.673 7.99752 121.003 7.85565 120.256 7.85565C118.756 7.85565 117.542 8.43729 116.603 9.60058L116.832 8.16775H113.777L110.722 25.5H113.849L115.103 18.3997C115.781 19.6268 116.864 20.2404 118.347 20.2404C119.129 20.2404 119.85 20.0914 120.514 19.7971C121.177 19.5027 121.767 19.0842 122.286 18.5416C122.804 17.9989 123.239 17.357 123.59 16.6193C123.942 15.8781 124.195 15.0623 124.351 14.1686C124.525 13.1826 124.55 12.296 124.427 11.5157L124.42 11.5122ZM121.155 13.9523C120.727 16.3746 119.6 17.5875 117.778 17.5875C115.955 17.5875 115.339 16.3143 115.792 13.7607C115.969 12.7571 116.368 11.9449 116.991 11.3242C117.614 10.7036 118.307 10.3915 119.075 10.3915C119.843 10.3915 120.466 10.7213 120.854 11.3845C121.242 12.0477 121.343 12.9025 121.159 13.9558L121.155 13.9523Z" fill="white"/>
<path id="bottom" d="M22.2282 3.17767C21.7716 3.17767 21.4201 3.39047 21.1519 3.8267C20.583 4.763 20.4127 5.96885 20.2931 7.12504C20.2858 7.20661 20.2786 7.29883 20.2713 7.39104C20.2568 7.54709 20.2423 7.70669 20.2387 7.82727V7.90175C20.2387 8.41955 20.2315 8.95154 20.2134 9.46225C20.0901 12.6116 19.7894 16.1121 18.4812 18.2259C17.8108 19.3254 16.7309 19.9815 15.5857 19.9815C15.2016 19.9815 14.8139 19.907 14.4334 19.7616C13.3063 19.3218 12.5598 18.4493 12.038 17.74V17.7329C11.6176 17.1442 11.2589 16.5023 10.9436 15.7788V15.7717L10.9364 15.761C10.8639 15.5801 10.7914 15.4028 10.7153 15.2326C10.6501 15.9525 10.545 16.8002 10.3602 17.6762C10.1355 18.7224 9.83473 19.5417 9.43973 20.1801C8.62437 21.503 7.56621 21.7832 6.81971 21.7832C6.73636 21.7832 6.64938 21.7796 6.56604 21.7725H6.54792L6.5298 21.769C4.84834 21.5562 3.80468 20.1021 3.24299 19.3218L3.23574 19.3147L3.2285 19.3076C2.91322 18.8466 2.61607 18.3429 2.31529 17.7649C2.18483 17.5237 2.07612 17.2825 1.97103 17.0484C1.85507 16.7966 1.74998 16.559 1.62677 16.3462V16.3356C1.39484 15.9171 1.15204 15.7043 0.905624 15.7043C0.789662 15.7043 0.651956 15.7397 0.499756 15.8107V21.9676C0.499756 22.8542 1.23539 23.5742 2.14135 23.5742H21.0577C21.9637 23.5742 22.6993 22.8542 22.6993 21.9676V3.24506C22.5326 3.2025 22.3732 3.17767 22.2282 3.17767Z" fill="white"/>
<path id="top" d="M1.20639 13.5018C1.82969 13.5018 2.42762 13.7182 2.97844 14.1438C3.59812 14.6155 4.0221 15.2326 4.32288 15.722C4.79398 16.4491 5.22521 17.0307 5.64195 17.506C6.0297 17.9386 6.30149 18.1869 6.48631 18.3252C6.48993 18.3146 6.49355 18.3004 6.5008 18.2898C6.63851 17.9067 6.72185 17.4244 6.77983 17.0449C6.89217 16.3108 6.92841 15.5092 6.96103 14.7325C6.9719 14.4807 6.98277 14.2324 6.99726 13.9877V13.97L7.00451 13.892C7.08424 12.828 7.17483 11.6221 7.71478 10.5014V10.4943L7.72203 10.4908C8.204 9.52256 9.07734 8.94801 10.063 8.94801C10.8603 8.94801 11.6285 9.31331 12.2264 9.98361C12.8497 10.6539 13.2629 11.4093 13.6361 12.1258C13.9912 12.8138 14.2775 13.4983 14.5348 14.1402C14.9407 15.1617 15.2342 15.6972 15.419 15.9774C15.4516 15.9171 15.4843 15.8532 15.5169 15.7823C15.7597 15.2468 15.959 14.6403 16.1619 13.8175C16.5931 11.9981 16.8396 10.0758 17.0208 8.43375C17.0316 8.34508 17.0389 8.25287 17.0498 8.15357C17.086 7.82019 17.1259 7.44425 17.1911 7.11796C17.5933 5.06093 18.2311 2.7982 19.9597 1.61363C20.5069 1.24124 21.1266 1.04972 21.797 1.04972C21.9745 1.04972 22.1557 1.06746 22.3369 1.09583C22.0361 0.734076 21.5759 0.5 21.0613 0.5H2.13772C1.23176 0.5 0.496124 1.21996 0.496124 2.10661V13.5976C0.724425 13.5373 0.959974 13.4983 1.20639 13.4983V13.5018Z" fill="white"/>
</g>
</svg>
