<svg id="logo" xmlns="http://www.w3.org/2000/svg" width="231" height="47" viewBox="0 0 231 47" fill="none">
  <path id="logo" d="M61.1154 23.6062V36.3746H54.793V6.09869H74.9929V11.388H61.1154V15.0998L56.5987 18.2747H74.3954V23.6106H61.1154V23.6062Z" fill="#6335FF"/>
  <path d="M79.1511 36.3748V5.73279H83.3358C84.2896 5.73279 85.0642 6.50932 85.0642 7.46557V36.3748H79.1511Z" fill="#6335FF"/>
  <path d="M100.017 36.9669C98.1981 36.9669 96.576 36.6785 95.1508 36.0994C93.7257 35.5226 92.5196 34.7172 91.5349 33.6833C90.5501 32.6494 89.7977 31.4025 89.2843 29.9448C88.7687 28.485 88.512 26.8897 88.512 25.157C88.512 23.4242 88.7775 21.7824 89.3086 20.3225C89.8397 18.8626 90.6054 17.6179 91.6057 16.584C92.6059 15.5501 93.812 14.7536 95.2217 14.1901C96.6313 13.6288 98.2313 13.347 100.019 13.347C101.807 13.347 103.354 13.6288 104.748 14.1901C106.143 14.7536 107.333 15.5435 108.318 16.5618C109.303 17.5802 110.062 18.8182 110.593 20.2781C111.124 21.738 111.39 23.3643 111.39 25.157C111.39 26.9496 111.124 28.5693 110.593 30.0136C110.062 31.458 109.305 32.696 108.318 33.7299C107.333 34.7638 106.134 35.5625 104.724 36.1238C103.314 36.6851 101.745 36.9669 100.017 36.9669ZM100.017 31.9971C103.624 31.9971 105.43 29.7163 105.43 25.157C105.43 20.5976 103.626 18.3634 100.017 18.3634C96.4078 18.3634 94.6042 20.6287 94.6042 25.157C94.6042 29.6853 96.4078 31.9971 100.017 31.9971Z" fill="#6335FF"/>
  <path d="M131.352 33.4328L128.606 23.3335L125.86 33.4328C125.386 35.1701 123.813 36.3748 122.018 36.3748C120.239 36.3748 118.674 35.19 118.188 33.475L112.644 13.9396H118.876L122.514 28.3477L125.608 13.9396H131.611L135.114 28.3477L138.525 13.9396C141.578 13.9396 143.78 16.8705 142.939 19.8124L139.034 33.4794C138.545 35.1923 136.982 36.3726 135.205 36.3726H135.199C133.402 36.3726 131.828 35.1678 131.357 33.4306L131.352 33.4328Z" fill="#6335FF"/>
  <path d="M148.005 18.2038C148.66 17.9154 149.55 17.7712 150.674 17.7712C152.037 17.7712 153 17.993 153.562 18.4323C154.122 18.8716 154.383 19.6393 154.348 20.7353H160.033C160.298 18.3037 159.776 16.4644 158.457 15.2175C157.14 13.9706 154.861 13.3494 151.615 13.3494C149.915 13.3494 148.439 13.5158 147.187 13.8508C146.189 14.117 145.314 14.4654 144.569 14.8936C145.584 16.5731 145.857 18.5788 145.308 20.4979L143.849 25.6053C144.383 25.8981 144.996 26.16 145.686 26.3929C146.775 26.7568 148.22 27.1672 150.021 27.6243C150.951 27.8683 151.741 28.1568 152.398 28.4918C153.053 28.8268 153.312 29.3881 153.175 30.178C153.029 31.0299 152.531 31.629 151.683 31.9795C150.836 32.3301 149.88 32.5031 148.82 32.5031C147.364 32.5031 146.277 32.2147 145.558 31.6356C144.839 31.0588 144.571 30.2379 144.755 29.1751C144.299 29.1751 143.865 29.2971 143.489 29.5124C142.785 29.9162 142.347 30.6616 142.261 31.4692C142.161 32.4055 141.847 34.5643 141.019 35.1833C142.612 36.3769 144.974 36.9737 148.096 36.9737C151.219 36.9737 153.856 36.3214 155.735 35.0147C157.612 33.7079 158.754 31.8841 159.154 29.5412C159.404 28.0813 159.285 26.9343 158.794 26.0978C158.3 25.2636 157.503 24.6024 156.406 24.1143C155.585 23.7793 154.62 23.4687 153.518 23.1803C152.416 22.8919 151.261 22.5657 150.048 22.1996C148.893 21.8646 148.043 21.5252 147.496 21.1746C146.95 20.8263 146.735 20.316 146.85 19.6459C146.967 18.9781 147.35 18.5011 148.008 18.2105L148.005 18.2038Z" fill="#6335FF"/>
  <path d="M181.421 15.2397C180.2 13.9795 178.436 13.3472 176.13 13.3472C175.371 13.3472 174.63 13.4381 173.902 13.62C173.172 13.8042 172.492 14.046 171.864 14.35C171.235 14.6539 170.664 15.0267 170.149 15.4682C169.631 15.9075 169.226 16.3734 168.929 16.8571L170.261 9.12503C170.567 7.35232 169.206 5.73047 167.411 5.73047H164.935L159.659 36.3725H165.572L167.787 23.5131C167.918 22.7543 168.137 22.0466 168.447 21.392C168.757 20.7398 169.153 20.1607 169.633 19.6593C170.113 19.1578 170.666 18.7629 171.293 18.4745C171.919 18.1861 172.596 18.0419 173.322 18.0419C174.687 18.0419 175.61 18.3525 176.095 18.9759C176.577 19.5994 176.675 20.7642 176.383 22.4637L173.988 36.3703H179.945L182.678 20.5024C183.066 18.2526 182.647 16.4977 181.424 15.2375L181.421 15.2397Z" fill="#6335FF"/>
  <path d="M206.888 20.2783C206.607 18.8184 206.063 17.5826 205.253 16.5642C204.443 15.5458 203.39 14.756 202.091 14.1925C200.792 13.6311 199.265 13.3494 197.507 13.3494C195.75 13.3494 194.071 13.6311 192.564 14.1925C191.057 14.7538 189.713 15.5525 188.536 16.5864C187.359 17.6181 186.376 18.865 185.595 20.3249C184.814 21.7847 184.27 23.3955 183.966 25.1593C183.668 26.8899 183.65 28.4873 183.915 29.945C184.181 31.4049 184.714 32.6496 185.522 33.6857C186.33 34.7174 187.396 35.5249 188.724 36.1018C190.05 36.6809 191.621 36.9693 193.44 36.9693C195.259 36.9693 196.786 36.6875 198.293 36.1262C199.8 35.5649 201.135 34.7662 202.296 33.7323C203.46 32.7006 204.432 31.4626 205.211 30.0182C205.99 28.5761 206.536 26.9565 206.844 25.1616C207.152 23.3666 207.167 21.7426 206.888 20.2805V20.2783ZM200.887 25.1593C200.101 29.7187 197.904 31.9995 194.296 31.9995C190.689 31.9995 189.277 29.7187 190.061 25.1593C190.84 20.6288 193.035 18.3636 196.642 18.3636C200.249 18.3636 201.666 20.6288 200.887 25.1593Z" fill="#6335FF"/>
  <path d="M230.733 20.3247C230.503 18.836 230.053 17.5735 229.383 16.5396C228.71 15.508 227.823 14.7137 226.721 14.1679C225.616 13.6199 224.368 13.347 222.972 13.347C220.181 13.347 217.915 14.4563 216.167 16.675L216.594 13.9394H210.907L205.217 46.9997H211.037L213.37 33.457C214.633 35.7977 216.647 36.9669 219.405 36.9669C220.861 36.9669 222.206 36.6851 223.439 36.1238C224.674 35.5625 225.771 34.7638 226.741 33.7299C227.705 32.6982 228.515 31.4735 229.168 30.0602C229.821 28.6447 230.295 27.0872 230.589 25.3855C230.914 23.5018 230.961 21.8156 230.733 20.3247ZM224.658 24.975C223.864 29.5965 221.766 31.9061 218.371 31.9061C214.976 31.9061 213.832 29.4745 214.671 24.6112C215.001 22.6964 215.744 21.1456 216.904 19.9608C218.064 18.7738 219.356 18.1815 220.781 18.1815C222.206 18.1815 223.37 18.8138 224.094 20.074C224.815 21.3364 225.006 22.9693 224.66 24.975H224.658Z" fill="#6335FF"/>
  <path d="M1.32335 24.7914C2.48515 24.7914 3.59827 25.2041 4.62066 26.0139C5.77361 26.9124 6.56585 28.0928 7.12573 29.0246C7.99985 30.4091 8.80537 31.5228 9.58212 32.4258C10.3013 33.249 10.8081 33.7238 11.1533 33.9922C11.16 33.97 11.1688 33.9456 11.1799 33.9234C11.4344 33.1935 11.5937 32.2705 11.7021 31.5517C11.9124 30.1495 11.9765 28.623 12.0385 27.1432C12.0584 26.6662 12.0761 26.1914 12.1027 25.7188V25.6855L12.116 25.5391C12.2642 23.509 12.4346 21.2083 13.4349 19.0717L13.4393 19.0606L13.4437 19.0539C14.34 17.2102 15.9665 16.1098 17.8011 16.1098C19.2837 16.1098 20.7155 16.8086 21.8309 18.0821C22.9882 19.3645 23.7628 20.8 24.4576 22.1689C25.1193 23.4846 25.6504 24.7892 26.1306 26.0117C26.8853 27.9619 27.4296 28.9825 27.7793 29.5149C27.8413 29.4018 27.9032 29.2753 27.963 29.14C28.4188 28.1216 28.7884 26.9635 29.1624 25.3904C29.9679 21.9227 30.4238 18.2574 30.7624 15.1247C30.7801 14.9538 30.7978 14.7763 30.8199 14.5944C30.8863 13.9599 30.9615 13.241 31.0788 12.622C31.8246 8.6994 33.0174 4.38188 36.2306 2.12328C37.2508 1.41108 38.4015 1.04944 39.6518 1.04944C39.9838 1.04944 40.3201 1.08272 40.6543 1.13375C40.0922 0.441526 39.238 1.07226e-05 38.2798 1.07226e-05H3.06052C1.36982 -0.00442661 0 1.36893 0 3.06399V24.9778C0.422675 24.8602 0.865268 24.7914 1.32335 24.7914Z" fill="#6335FF"/>
  <path d="M40.4642 5.10266C39.6122 5.10266 38.9572 5.50646 38.4637 6.33846C37.4014 8.1267 37.0872 10.4252 36.8637 12.6306C36.8504 12.7881 36.8371 12.9634 36.8216 13.1409C36.7951 13.4382 36.7707 13.7422 36.7619 13.9729V14.1171C36.7575 15.1022 36.7508 16.1183 36.7154 17.0901C36.4897 23.0938 35.9254 29.7742 33.4867 33.8033C32.2386 35.8978 30.2248 37.1513 28.0959 37.1513C27.3789 37.1513 26.6553 37.0093 25.9516 36.732C23.8515 35.8955 22.4662 34.2293 21.4903 32.8737L21.4858 32.8671L21.4814 32.8604C20.6958 31.7355 20.0297 30.5153 19.4477 29.1308L19.4411 29.1153L19.4366 29.0975C19.2994 28.7514 19.1644 28.4164 19.0272 28.0903C18.9055 29.4614 18.713 31.081 18.3678 32.7495C17.9495 34.7463 17.3874 36.3082 16.6572 37.5285C15.1413 40.0533 13.1695 40.5836 11.7798 40.5836C11.6227 40.5836 11.4633 40.5769 11.3062 40.5636H11.2708L11.2354 40.557C8.10848 40.1532 6.16108 37.3798 5.11435 35.8889L5.10328 35.8734L5.09222 35.8578C4.508 34.9815 3.95254 34.0186 3.39045 32.9159C3.14924 32.4566 2.94565 31.9973 2.75091 31.5514C2.53846 31.0722 2.33708 30.6196 2.11136 30.2135L2.10694 30.2069L2.10251 30.1958C1.67098 29.3971 1.21954 28.9911 0.761455 28.9911C0.542372 28.9911 0.287882 29.062 0.00683594 29.1952V40.9386C0.00683594 42.6336 1.37666 44.007 3.06736 44.007H38.2888C39.9795 44.007 41.3494 42.6336 41.3494 40.9386V5.23134C41.0418 5.14925 40.7452 5.10488 40.4708 5.10488L40.4642 5.10266Z" fill="#6335FF"/>
</svg>
